<svg width="112" height="32" viewBox="0 0 112 32" fill="none" xmlns="http://www.w3.org/2000/svg">
<g clip-path="url(#clip0_163_402)">
<path d="M16 17.125V9.25" stroke="black" stroke-width="1.4" stroke-linecap="round" stroke-linejoin="round"/>
<path d="M22.1875 17.125V21.625H9.8125V17.125" stroke="black" stroke-width="1.4" stroke-linecap="round" stroke-linejoin="round"/>
<path d="M18.8125 14.3125L16 17.125L13.1875 14.3125" stroke="black" stroke-width="1.4" stroke-linecap="round" stroke-linejoin="round"/>
</g>
<rect x="0.5" y="0.5" width="31" height="31" rx="7.5" stroke="#595959" stroke-opacity="0.15"/>
<g clip-path="url(#clip1_163_402)">
<path d="M58.8125 18.8125H62.1875V9.8125H53.1875V13.1875" stroke="black" stroke-width="1.4" stroke-linecap="round" stroke-linejoin="round"/>
<path d="M58.8125 13.1875H49.8125V22.1875H58.8125V13.1875Z" stroke="black" stroke-width="1.4" stroke-linecap="round" stroke-linejoin="round"/>
</g>
<rect x="40.5" y="0.5" width="31" height="31" rx="7.5" stroke="#595959" stroke-opacity="0.15"/>
<g clip-path="url(#clip2_163_402)">
<path d="M98.8125 13.75H102.188V10.375" stroke="black" stroke-width="1.4" stroke-linecap="round" stroke-linejoin="round"/>
<path d="M102.188 13.7499L100.199 11.7614C99.0475 10.6099 97.4884 9.9588 95.8599 9.94932C94.2314 9.93985 92.6649 10.5728 91.5 11.7108" stroke="black" stroke-width="1.4" stroke-linecap="round" stroke-linejoin="round"/>
<path d="M93.1875 18.25H89.8125V21.625" stroke="black" stroke-width="1.4" stroke-linecap="round" stroke-linejoin="round"/>
<path d="M89.8125 18.25L91.8009 20.2384C92.9525 21.3899 94.5116 22.041 96.1401 22.0505C97.7686 22.06 99.3351 21.4271 100.5 20.2891" stroke="black" stroke-width="1.4" stroke-linecap="round" stroke-linejoin="round"/>
</g>
<rect x="80.5" y="0.5" width="31" height="31" rx="7.5" stroke="#595959" stroke-opacity="0.15"/>
<defs>
<clipPath id="clip0_163_402">
<rect x="7" y="7" width="18" height="18" rx="2.5" fill="white"/>
</clipPath>
<clipPath id="clip1_163_402">
<rect width="18" height="18" fill="white" transform="translate(47 7)"/>
</clipPath>
<clipPath id="clip2_163_402">
<rect width="18" height="18" fill="white" transform="translate(87 7)"/>
</clipPath>
</defs>
</svg>
