<svg width="32" height="11" viewBox="0 0 32 11" fill="none" xmlns="http://www.w3.org/2000/svg">
<path d="M0 0V10.4492H10.4499V0H0ZM10.7868 0V10.4492H21.2139V0H10.7868ZM21.5723 0V10.4492H32V0H21.5723ZM27.7629 2.35369C28.2004 2.35369 28.536 2.42121 28.7685 2.55496L28.2246 3.65867C27.9947 3.51346 27.7438 3.44081 27.4693 3.44081C27.1718 3.44081 26.9076 3.5765 26.6764 3.84781C26.4452 4.11849 26.3306 4.449 26.3306 4.84005V7.97602H25.0409V2.4473H26.3306V2.97529C26.6898 2.56069 27.1667 2.35369 27.7629 2.35369ZM5.43619 2.35381C6.09281 2.35381 6.61181 2.54999 6.99202 2.94485C7.37224 3.33717 7.5627 3.88678 7.5627 4.5899V7.97615H6.27304V4.79372C6.27304 4.3237 6.18258 3.98101 6.0017 3.76511C5.82147 3.54921 5.52593 3.44094 5.11578 3.44094C4.92663 3.44094 4.72412 3.49443 4.50949 3.60079C4.29423 3.70651 4.12612 3.839 4.00511 3.9963V7.97615H2.71608V2.44743H3.64527L3.88285 2.96266C4.23377 2.55697 4.75155 2.35381 5.43619 2.35381ZM15.9921 2.35394C17.7543 2.35394 18.6351 3.32454 18.6351 5.26382C18.6351 6.16692 18.3918 6.8649 17.9052 7.35211C17.4174 7.84124 16.7525 8.0852 15.9093 8.0852C15.503 8.0852 15.1329 8.00365 14.7992 7.84188V10.1353H13.5095V2.44691H14.7992V2.81824C15.1227 2.50936 15.5201 2.35394 15.9921 2.35394ZM15.6227 3.45638C15.3132 3.45638 15.0387 3.57739 14.7992 3.81686V6.71462C15.0323 6.90377 15.3049 6.99801 15.6176 6.99801C16.2105 6.99801 16.6366 6.85605 16.8958 6.57327C17.1544 6.2905 17.2836 5.84275 17.2836 5.23262C17.2836 4.58046 17.155 4.1213 16.8983 3.85572C16.641 3.58951 16.2156 3.45638 15.6227 3.45638Z" fill="black"/>
</svg>
